<svg xmlns="http://www.w3.org/2000/svg" xmlns:xlink="http://www.w3.org/1999/xlink" width="2017.845" height="1209.042" viewBox="0 0 2017.845 1209.042">
  <defs>
    <clipPath id="clip-path">
      <rect id="Rectangle_25" data-name="Rectangle 25" width="214" height="104" transform="translate(1614 426)" fill="#404040" stroke="#707070" stroke-width="1"/>
    </clipPath>
    <clipPath id="clip-path-3">
      <rect id="Rectangle_24" data-name="Rectangle 24" width="149" height="97" transform="translate(1345 380)" fill="#383838" stroke="#383838" stroke-width="1"/>
    </clipPath>
    <clipPath id="clip-path-4">
      <rect id="Rectangle_6" data-name="Rectangle 6" width="94" height="63" transform="translate(0.087 -0.044)" fill="#a5a5a5" stroke="#707070" stroke-width="1"/>
    </clipPath>
  </defs>
  <g id="Group_24" data-name="Group 24" transform="translate(66.622 -47.25)">
    <g id="Group_22" data-name="Group 22" transform="translate(370.852 -135.696) rotate(30)">
      <g id="Group_4" data-name="Group 4" transform="translate(-25.949 -352.57)">
        <g id="Rectangle_3" data-name="Rectangle 3" transform="translate(407 353)" fill="#333" stroke="#3b3b3b" stroke-width="8">
          <rect width="283" height="378" rx="10" stroke="none"/>
          <rect x="4" y="4" width="275" height="370" rx="6" fill="none"/>
        </g>
        <rect id="Rectangle_8" data-name="Rectangle 8" width="213" height="19" rx="9.5" transform="translate(432 422)" fill="#3b3b3b"/>
        <rect id="Rectangle_9" data-name="Rectangle 9" width="159" height="20" rx="10" transform="translate(432 469)" fill="#3b3b3b"/>
        <path id="Path_4" data-name="Path 4" d="M517.98,1842.215v47.639H781.215V1736.917s-66.982-25.058-122.3,46.045-140.931,59.253-140.931,59.253Z" transform="translate(-101 -1169)" fill="#383838"/>
      </g>
      <g id="Group_7" data-name="Group 7" transform="translate(-1093.819 66.819)">
        <g id="Rectangle_3-2" data-name="Rectangle 3" transform="translate(1475 351)" fill="#333" stroke="#383838" stroke-width="8">
          <rect width="283" height="378" rx="10" stroke="none"/>
          <rect x="4" y="4" width="275" height="370" rx="6" fill="none"/>
        </g>
        <path id="Path_8" data-name="Path 8" d="M8,0H255a8,8,0,0,1,8,8V25a8,8,0,0,1-8,8H8a8,8,0,0,1-8-8V8A8,8,0,0,1,8,0Z" transform="translate(1485 363)" fill="#383838"/>
        <rect id="Rectangle_37" data-name="Rectangle 37" width="263" height="8" transform="translate(1485 554)" fill="#383838"/>
        <rect id="Rectangle_35" data-name="Rectangle 35" width="59" height="20" rx="10" transform="translate(1661 481)" fill="#383838"/>
        <rect id="Rectangle_36" data-name="Rectangle 36" width="42" height="20" rx="10" transform="translate(1661 511)" fill="#383838"/>
        <rect id="Rectangle_31" data-name="Rectangle 31" width="129" height="20" rx="10" transform="translate(1511 612)" fill="#383838"/>
        <rect id="Rectangle_32" data-name="Rectangle 32" width="150" height="20" rx="10" transform="translate(1511 647)" fill="#383838"/>
        <g id="Mask_Group_3" data-name="Mask Group 3" transform="translate(-167 8)" clip-path="url(#clip-path)">
          <g id="iconfinder_flow_chart_172564" transform="translate(1672.446 426)">
            <rect id="Rectangle_26" data-name="Rectangle 26" width="31.116" height="20.8" transform="translate(33.061 2.08)" fill="none" stroke="#404040" stroke-linecap="round" stroke-miterlimit="10" stroke-width="3.76"/>
            <rect id="Rectangle_27" data-name="Rectangle 27" width="23.337" height="20.8" transform="translate(36.95 74.88)" fill="none" stroke="#404040" stroke-linecap="round" stroke-miterlimit="10" stroke-width="3.76"/>
            <rect id="Rectangle_28" data-name="Rectangle 28" width="23.337" height="20.8" transform="translate(1.945 74.88)" fill="none" stroke="#404040" stroke-linecap="round" stroke-miterlimit="10" stroke-width="3.76"/>
            <rect id="Rectangle_29" data-name="Rectangle 29" width="23.337" height="20.8" transform="translate(71.956 74.88)" fill="none" stroke="#404040" stroke-linecap="round" stroke-miterlimit="10" stroke-width="3.76"/>
            <rect id="Rectangle_33" data-name="Rectangle 33" width="23.337" height="20.8" transform="translate(107.956 74.88)" fill="none" stroke="#404040" stroke-linecap="round" stroke-miterlimit="10" stroke-width="3.76"/>
            <rect id="Rectangle_30" data-name="Rectangle 30" width="97.237" height="104" fill="none"/>
            <line id="Line_1" data-name="Line 1" y1="52" transform="translate(48.619 22.88)" fill="none" stroke="#404040" stroke-linecap="round" stroke-miterlimit="10" stroke-width="3.76"/>
            <path id="Path_5" data-name="Path 5" d="M83.171,70.28V43.24H13.16V70.28" transform="translate(36.453 4.6)" fill="none" stroke="#404040" stroke-linecap="round" stroke-miterlimit="10" stroke-width="3.76"/>
            <path id="Path_6" data-name="Path 6" d="M83.171,70.28V43.24H13.16V70.28" transform="translate(1.453 4.6)" fill="none" stroke="#404040" stroke-linecap="round" stroke-miterlimit="10" stroke-width="3.76"/>
          </g>
        </g>
      </g>
      <g id="Group_18" data-name="Group 18" transform="translate(-26.278 487.378)">
        <g id="Rectangle_3-3" data-name="Rectangle 3" transform="translate(407 353)" fill="#333" stroke="#3b3b3b" stroke-width="8">
          <rect width="283" height="378" rx="10" stroke="none"/>
          <rect x="4" y="4" width="275" height="370" rx="6" fill="none"/>
        </g>
        <rect id="Rectangle_8-2" data-name="Rectangle 8" width="213" height="19" rx="9.5" transform="translate(432 422)" fill="#3b3b3b"/>
        <rect id="Rectangle_9-2" data-name="Rectangle 9" width="159" height="20" rx="10" transform="translate(432 469)" fill="#3b3b3b"/>
        <path id="Path_4-2" data-name="Path 4" d="M517.98,1842.215v47.639H781.215V1736.917s-66.982-25.058-122.3,46.045-140.931,59.253-140.931,59.253Z" transform="translate(-101 -1169)" fill="#383838"/>
      </g>
    </g>
    <g id="Group_23" data-name="Group 23">
      <g id="Group_17" data-name="Group 17" transform="translate(-230.793 -733.213) rotate(30)">
        <g id="Group_10" data-name="Group 10" transform="translate(39.288 -201.565)">
          <g id="Rectangle_3-4" data-name="Rectangle 3" transform="translate(1475 351)" fill="#333" stroke="#383838" stroke-width="8">
            <rect width="283" height="378" rx="10" stroke="none"/>
            <rect x="4" y="4" width="275" height="370" rx="6" fill="none"/>
          </g>
          <path id="Path_8-2" data-name="Path 8" d="M8,0H255a8,8,0,0,1,8,8V25a8,8,0,0,1-8,8H8a8,8,0,0,1-8-8V8A8,8,0,0,1,8,0Z" transform="translate(1485 363)" fill="#383838"/>
          <rect id="Rectangle_37-2" data-name="Rectangle 37" width="263" height="8" transform="translate(1485 554)" fill="#383838"/>
          <rect id="Rectangle_35-2" data-name="Rectangle 35" width="59" height="20" rx="10" transform="translate(1661 481)" fill="#383838"/>
          <rect id="Rectangle_36-2" data-name="Rectangle 36" width="42" height="20" rx="10" transform="translate(1661 511)" fill="#383838"/>
          <rect id="Rectangle_31-2" data-name="Rectangle 31" width="129" height="20" rx="10" transform="translate(1511 612)" fill="#383838"/>
          <rect id="Rectangle_32-2" data-name="Rectangle 32" width="150" height="20" rx="10" transform="translate(1511 647)" fill="#383838"/>
          <g id="Mask_Group_3-2" data-name="Mask Group 3" transform="translate(-167 8)" clip-path="url(#clip-path)">
            <g id="iconfinder_flow_chart_172564-2" data-name="iconfinder_flow_chart_172564" transform="translate(1672.446 426)">
              <rect id="Rectangle_26-2" data-name="Rectangle 26" width="31.116" height="20.8" transform="translate(33.061 2.08)" fill="none" stroke="#404040" stroke-linecap="round" stroke-miterlimit="10" stroke-width="3.76"/>
              <rect id="Rectangle_27-2" data-name="Rectangle 27" width="23.337" height="20.8" transform="translate(36.95 74.88)" fill="none" stroke="#404040" stroke-linecap="round" stroke-miterlimit="10" stroke-width="3.76"/>
              <rect id="Rectangle_28-2" data-name="Rectangle 28" width="23.337" height="20.8" transform="translate(1.945 74.88)" fill="none" stroke="#404040" stroke-linecap="round" stroke-miterlimit="10" stroke-width="3.76"/>
              <rect id="Rectangle_29-2" data-name="Rectangle 29" width="23.337" height="20.8" transform="translate(71.956 74.88)" fill="none" stroke="#404040" stroke-linecap="round" stroke-miterlimit="10" stroke-width="3.76"/>
              <rect id="Rectangle_33-2" data-name="Rectangle 33" width="23.337" height="20.8" transform="translate(107.956 74.88)" fill="none" stroke="#404040" stroke-linecap="round" stroke-miterlimit="10" stroke-width="3.76"/>
              <rect id="Rectangle_30-2" data-name="Rectangle 30" width="97.237" height="104" fill="none"/>
              <line id="Line_1-2" data-name="Line 1" y1="52" transform="translate(48.619 22.88)" fill="none" stroke="#404040" stroke-linecap="round" stroke-miterlimit="10" stroke-width="3.76"/>
              <path id="Path_5-2" data-name="Path 5" d="M83.171,70.28V43.24H13.16V70.28" transform="translate(36.453 4.6)" fill="none" stroke="#404040" stroke-linecap="round" stroke-miterlimit="10" stroke-width="3.76"/>
              <path id="Path_6-2" data-name="Path 6" d="M83.171,70.28V43.24H13.16V70.28" transform="translate(1.453 4.6)" fill="none" stroke="#404040" stroke-linecap="round" stroke-miterlimit="10" stroke-width="3.76"/>
            </g>
          </g>
        </g>
        <g id="Group_9" data-name="Group 9" transform="translate(377.152 208.561)">
          <g id="Rectangle_3-5" data-name="Rectangle 3" transform="translate(1137 349)" fill="#333" stroke="#383838" stroke-width="8">
            <rect width="283" height="378" rx="10" stroke="none"/>
            <rect x="4" y="4" width="275" height="370" rx="6" fill="none"/>
          </g>
          <g id="Path_7" data-name="Path 7" transform="translate(1218.5 358.5) rotate(90)" fill="#383838">
            <path d="M 357 71.5 L 3 71.5 C 1.621500015258789 71.5 0.5 70.37850189208984 0.5 69 L 0.5 3 C 0.5 1.621500015258789 1.621500015258789 0.5 3 0.5 L 357 0.5 C 358.3785095214844 0.5 359.5 1.621500015258789 359.5 3 L 359.5 69 C 359.5 70.37850189208984 358.3785095214844 71.5 357 71.5 Z" stroke="none"/>
            <path d="M 3 1 C 1.897186279296875 1 1 1.897178649902344 1 3 L 1 69 C 1 70.10282135009766 1.897186279296875 71 3 71 L 357 71 C 358.1028137207031 71 359 70.10282135009766 359 69 L 359 3 C 359 1.897178649902344 358.1028137207031 1 357 1 L 3 1 M 3 0 L 357 0 C 358.6568603515625 0 360 1.3431396484375 360 3 L 360 69 C 360 70.6568603515625 358.6568603515625 72 357 72 L 3 72 C 1.3431396484375 72 0 70.6568603515625 0 69 L 0 3 C 0 1.3431396484375 1.3431396484375 0 3 0 Z" stroke="none" fill="#383838"/>
          </g>
          <g id="Rectangle_15" data-name="Rectangle 15" transform="translate(1237 508)" fill="#383838" stroke="#383838" stroke-width="1">
            <rect width="98" height="20" rx="10" stroke="none"/>
            <rect x="0.5" y="0.5" width="97" height="19" rx="9.5" fill="none"/>
          </g>
          <g id="Rectangle_22" data-name="Rectangle 22" transform="translate(1237 649)" fill="#383838" stroke="#383838" stroke-width="1">
            <rect width="73" height="20" rx="10" stroke="none"/>
            <rect x="0.5" y="0.5" width="72" height="19" rx="9.5" fill="none"/>
          </g>
          <g id="Rectangle_23" data-name="Rectangle 23" transform="translate(1331 649)" fill="#383838" stroke="#383838" stroke-width="1">
            <rect width="73" height="20" rx="10" stroke="none"/>
            <rect x="0.5" y="0.5" width="72" height="19" rx="9.5" fill="none"/>
          </g>
          <g id="Rectangle_16" data-name="Rectangle 16" transform="translate(1237 555)" fill="#383838" stroke="#383838" stroke-width="1">
            <rect width="130" height="20" rx="10" stroke="none"/>
            <rect x="0.5" y="0.5" width="129" height="19" rx="9.5" fill="none"/>
          </g>
          <g id="Rectangle_17" data-name="Rectangle 17" transform="translate(1237 602)" fill="#383838" stroke="#383838" stroke-width="1">
            <rect width="107" height="20" rx="10" stroke="none"/>
            <rect x="0.5" y="0.5" width="106" height="19" rx="9.5" fill="none"/>
          </g>
          <rect id="Rectangle_19" data-name="Rectangle 19" width="48" height="20" rx="10" transform="translate(1154 431)" fill="#333"/>
          <rect id="Rectangle_20" data-name="Rectangle 20" width="48" height="20" rx="10" transform="translate(1154 455)" fill="#333"/>
          <rect id="Rectangle_21" data-name="Rectangle 21" width="48" height="20" rx="10" transform="translate(1154 479)" fill="#333"/>
          <g id="Mask_Group_2" data-name="Mask Group 2" transform="translate(-116 2)" clip-path="url(#clip-path-3)">
            <g id="_2" data-name="2" transform="translate(1357.684 380)">
              <path id="bar_chart_graph_analysis" d="M121.273,104.773V38.636a4.409,4.409,0,0,0-4.409-4.409H99.227a4.409,4.409,0,0,0-4.409,4.409v66.136H86V21a4.409,4.409,0,0,0-4.409-4.409H63.955A4.409,4.409,0,0,0,59.545,21v83.773H50.727V60.682a4.409,4.409,0,0,0-4.409-4.409H28.682a4.409,4.409,0,0,0-4.409,4.409v44.091H15.455V16.591H6.636v92.591a4.409,4.409,0,0,0,4.409,4.409H130.091v-8.818ZM103.636,43.045h8.818v61.727h-8.818ZM68.364,25.409h8.818v79.364H68.364ZM33.091,65.091h8.818v39.682H33.091Z" transform="translate(-6.636 -16.591)" fill="#383838"/>
            </g>
          </g>
        </g>
      </g>
      <g id="Group_5" data-name="Group 5" transform="translate(746.633 -281.586) rotate(30)">
        <rect id="Rectangle_3-6" data-name="Rectangle 3" width="283" height="378" rx="10" transform="translate(777 349)" fill="#515151"/>
        <rect id="Rectangle_10" data-name="Rectangle 10" width="48" height="20" rx="10" transform="translate(983.113 681.691)" fill="#fefefe"/>
        <g id="Component_5_1" data-name="Component 5 – 1" transform="translate(777 349)">
          <rect id="Rectangle_5" data-name="Rectangle 5" width="283" height="156" rx="8" fill="#787878"/>
          <g id="Mask_Group_1" data-name="Mask Group 1" transform="translate(94.913 47.044)" clip-path="url(#clip-path-4)">
            <g id="iconfinder_picture_1814111" transform="translate(5.998)">
              <g id="Icon-Image" transform="translate(0 0)">
                <path id="Fill-12" d="M-485.555-390.368H-553.25a7.241,7.241,0,0,1-7.2-7.2V-445.9a7.241,7.241,0,0,1,7.2-7.2h67.695a7.241,7.241,0,0,1,7.2,7.2v48.329a7.241,7.241,0,0,1-7.2,7.2Zm-67.866-58.1a2.343,2.343,0,0,0-2.4,2.4v48.329a2.343,2.343,0,0,0,2.4,2.4h67.695a2.343,2.343,0,0,0,2.4-2.4v-48.329a2.343,2.343,0,0,0-2.4-2.4Z" transform="translate(560.448 453.093)" fill="#a5a5a5"/>
                <path id="Fill-13" d="M-498.072-422.405a9.4,9.4,0,0,1-9.426-9.426,9.51,9.51,0,0,1,9.426-9.426,9.51,9.51,0,0,1,9.426,9.426,9.51,9.51,0,0,1-9.426,9.426Zm0-14.567a4.974,4.974,0,0,0-4.97,4.97,4.974,4.974,0,0,0,4.97,4.97A4.974,4.974,0,0,0-493.1-432a4.974,4.974,0,0,0-4.97-4.97Z" transform="translate(551.199 451.026)" fill="#a5a5a5"/>
                <path id="Fill-14" d="M-494.322-387.308-533.911-424.5l-22.622,20.908-3.085-3.256,25.707-23.822,42.674,40.1-3.085,3.256" transform="translate(560.303 449.176)" fill="#a5a5a5"/>
                <path id="Fill-15" d="M-471.283-396.564l-13.2-10.626-10.968,9.083-2.913-3.6,13.882-11.311,15.938,13.025-2.742,3.428" transform="translate(549.603 446.093)" fill="#a5a5a5"/>
              </g>
            </g>
          </g>
          <g id="Rectangle_7" data-name="Rectangle 7" transform="translate(30 183)" fill="#2aa3ff" stroke="#707070" stroke-width="1">
            <rect width="119" height="20" rx="10" stroke="none"/>
            <rect x="0.5" y="0.5" width="118" height="19" rx="9.5" fill="none"/>
          </g>
          <g id="Rectangle_8-3" data-name="Rectangle 8" transform="translate(30 220)" fill="#787878" stroke="#707070" stroke-width="1">
            <rect width="213" height="19" rx="9.5" stroke="none"/>
            <rect x="0.5" y="0.5" width="212" height="18" rx="9" fill="none"/>
          </g>
          <g id="Rectangle_9-3" data-name="Rectangle 9" transform="translate(30 256)" fill="#787878" stroke="#707070" stroke-width="1">
            <rect width="159" height="20" rx="10" stroke="none"/>
            <rect x="0.5" y="0.5" width="158" height="19" rx="9.5" fill="none"/>
          </g>
          <rect id="Rectangle_11" data-name="Rectangle 11" width="54" height="20" rx="10" transform="translate(138.469 332.819)" fill="#787878"/>
        </g>
      </g>
      <g id="Group_14" data-name="Group 14" transform="translate(846.156 278.228) rotate(30)">
        <g id="Rectangle_3-7" data-name="Rectangle 3" transform="translate(407 353)" fill="#333" stroke="#3b3b3b" stroke-width="8">
          <rect width="283" height="378" rx="10" stroke="none"/>
          <rect x="4" y="4" width="275" height="370" rx="6" fill="none"/>
        </g>
        <rect id="Rectangle_8-4" data-name="Rectangle 8" width="213" height="19" rx="9.5" transform="translate(432 422)" fill="#3b3b3b"/>
        <rect id="Rectangle_9-4" data-name="Rectangle 9" width="159" height="20" rx="10" transform="translate(432 469)" fill="#3b3b3b"/>
        <path id="Path_4-3" data-name="Path 4" d="M517.98,1842.215v47.639H781.215V1736.917s-66.982-25.058-122.3,46.045-140.931,59.253-140.931,59.253Z" transform="translate(-101 -1169)" fill="#383838"/>
      </g>
      <g id="Group_12" data-name="Group 12" transform="translate(1580.417 -289.492) rotate(30)">
        <g id="Path_3" data-name="Path 3" transform="translate(69 349)" fill="#333" opacity="0.6">
          <path d="M 273 374 L 208.7971038818359 374 L 10 374 C 6.69159984588623 374 4 371.3084106445313 4 368 L 4 10 C 4 6.69159984588623 6.69159984588623 4 10 4 L 190.8886566162109 4 L 197.1421508789063 4 L 273 4 C 276.3084106445313 4 279 6.69159984588623 279 10 L 279 368 C 279 371.3084106445313 276.3084106445313 374 273 374 Z" stroke="none"/>
          <path d="M 10 8 C 8.897216796875 8 8 8.897216796875 8 10 L 8 368 C 8 369.102783203125 8.897216796875 370 10 370 L 208.797119140625 370 L 273 370 C 274.102783203125 370 275 369.102783203125 275 368 L 275 10 C 275 8.897216796875 274.102783203125 8 273 8 L 213.4372253417969 8 L 190.888671875 8 L 10 8 M 10 0 C 10 0 144.1031036376953 0 190.888671875 0 C 208.0077514648438 0 213.4372100830078 0 213.4372100830078 0 L 197.1421203613281 0 L 273 0 C 278.5228271484375 0 283 4.47711181640625 283 10 L 283 368 C 283 373.5228271484375 278.5228271484375 378 273 378 L 208.797119140625 378 L 10 378 C 4.47711181640625 378 0 373.5228271484375 0 368 L 0 10 C 0 4.47711181640625 4.47711181640625 0 10 0 Z" stroke="none" fill="#383838"/>
        </g>
        <rect id="Rectangle_8-5" data-name="Rectangle 8" width="213" height="19" rx="9.5" transform="translate(93 460)" fill="#3b3b3b"/>
        <rect id="Rectangle_14" data-name="Rectangle 14" width="213" height="19" rx="9.5" transform="translate(93 549)" fill="#3b3b3b"/>
        <rect id="Rectangle_9-5" data-name="Rectangle 9" width="159" height="20" rx="10" transform="translate(99 411)" fill="#3b3b3b"/>
        <rect id="Rectangle_12" data-name="Rectangle 12" width="159" height="20" rx="10" transform="translate(99 508)" fill="#3b3b3b"/>
        <rect id="Rectangle_13" data-name="Rectangle 13" width="159" height="20" rx="10" transform="translate(99 597)" fill="#3b3b3b"/>
        <rect id="Rectangle_11-2" data-name="Rectangle 11" width="265" height="72" rx="7" transform="translate(78 646)" fill="#3b3b3b"/>
      </g>
      <g id="Group_15" data-name="Group 15" transform="translate(104.529 -62.655) rotate(30)">
        <g id="Group_3" data-name="Group 3" transform="translate(194.164 -341.835)">
          <g id="Path_3-2" data-name="Path 3" transform="translate(69 349)" fill="#333" opacity="0.6">
            <path d="M 273 374 L 208.7971038818359 374 L 10 374 C 6.69159984588623 374 4 371.3084106445313 4 368 L 4 10 C 4 6.69159984588623 6.69159984588623 4 10 4 L 190.8886566162109 4 L 197.1421508789063 4 L 273 4 C 276.3084106445313 4 279 6.69159984588623 279 10 L 279 368 C 279 371.3084106445313 276.3084106445313 374 273 374 Z" stroke="none"/>
            <path d="M 10 8 C 8.897216796875 8 8 8.897216796875 8 10 L 8 368 C 8 369.102783203125 8.897216796875 370 10 370 L 208.797119140625 370 L 273 370 C 274.102783203125 370 275 369.102783203125 275 368 L 275 10 C 275 8.897216796875 274.102783203125 8 273 8 L 213.4372253417969 8 L 190.888671875 8 L 10 8 M 10 0 C 10 0 144.1031036376953 0 190.888671875 0 C 208.0077514648438 0 213.4372100830078 0 213.4372100830078 0 L 197.1421203613281 0 L 273 0 C 278.5228271484375 0 283 4.47711181640625 283 10 L 283 368 C 283 373.5228271484375 278.5228271484375 378 273 378 L 208.797119140625 378 L 10 378 C 4.47711181640625 378 0 373.5228271484375 0 368 L 0 10 C 0 4.47711181640625 4.47711181640625 0 10 0 Z" stroke="none" fill="#383838"/>
          </g>
          <rect id="Rectangle_8-6" data-name="Rectangle 8" width="213" height="19" rx="9.5" transform="translate(93 460)" fill="#3b3b3b"/>
          <rect id="Rectangle_14-2" data-name="Rectangle 14" width="213" height="19" rx="9.5" transform="translate(93 549)" fill="#3b3b3b"/>
          <rect id="Rectangle_9-6" data-name="Rectangle 9" width="159" height="20" rx="10" transform="translate(99 411)" fill="#3b3b3b"/>
          <rect id="Rectangle_12-2" data-name="Rectangle 12" width="159" height="20" rx="10" transform="translate(99 508)" fill="#3b3b3b"/>
          <rect id="Rectangle_13-2" data-name="Rectangle 13" width="159" height="20" rx="10" transform="translate(99 597)" fill="#3b3b3b"/>
          <rect id="Rectangle_11-3" data-name="Rectangle 11" width="265" height="72" rx="7" transform="translate(78 646)" fill="#3b3b3b"/>
        </g>
        <g id="Group_6" data-name="Group 6" transform="translate(-871.848 74.561)">
          <g id="Rectangle_3-8" data-name="Rectangle 3" transform="translate(1137 349)" fill="#333" stroke="#383838" stroke-width="8">
            <rect width="283" height="378" rx="10" stroke="none"/>
            <rect x="4" y="4" width="275" height="370" rx="6" fill="none"/>
          </g>
          <g id="Path_7-2" data-name="Path 7" transform="translate(1218.5 358.5) rotate(90)" fill="#383838">
            <path d="M 357 71.5 L 3 71.5 C 1.621500015258789 71.5 0.5 70.37850189208984 0.5 69 L 0.5 3 C 0.5 1.621500015258789 1.621500015258789 0.5 3 0.5 L 357 0.5 C 358.3785095214844 0.5 359.5 1.621500015258789 359.5 3 L 359.5 69 C 359.5 70.37850189208984 358.3785095214844 71.5 357 71.5 Z" stroke="none"/>
            <path d="M 3 1 C 1.897186279296875 1 1 1.897178649902344 1 3 L 1 69 C 1 70.10282135009766 1.897186279296875 71 3 71 L 357 71 C 358.1028137207031 71 359 70.10282135009766 359 69 L 359 3 C 359 1.897178649902344 358.1028137207031 1 357 1 L 3 1 M 3 0 L 357 0 C 358.6568603515625 0 360 1.3431396484375 360 3 L 360 69 C 360 70.6568603515625 358.6568603515625 72 357 72 L 3 72 C 1.3431396484375 72 0 70.6568603515625 0 69 L 0 3 C 0 1.3431396484375 1.3431396484375 0 3 0 Z" stroke="none" fill="#383838"/>
          </g>
          <g id="Rectangle_15-2" data-name="Rectangle 15" transform="translate(1237 508)" fill="#383838" stroke="#383838" stroke-width="1">
            <rect width="98" height="20" rx="10" stroke="none"/>
            <rect x="0.5" y="0.5" width="97" height="19" rx="9.5" fill="none"/>
          </g>
          <g id="Rectangle_22-2" data-name="Rectangle 22" transform="translate(1237 649)" fill="#383838" stroke="#383838" stroke-width="1">
            <rect width="73" height="20" rx="10" stroke="none"/>
            <rect x="0.5" y="0.5" width="72" height="19" rx="9.5" fill="none"/>
          </g>
          <g id="Rectangle_23-2" data-name="Rectangle 23" transform="translate(1331 649)" fill="#383838" stroke="#383838" stroke-width="1">
            <rect width="73" height="20" rx="10" stroke="none"/>
            <rect x="0.5" y="0.5" width="72" height="19" rx="9.5" fill="none"/>
          </g>
          <g id="Rectangle_16-2" data-name="Rectangle 16" transform="translate(1237 555)" fill="#383838" stroke="#383838" stroke-width="1">
            <rect width="130" height="20" rx="10" stroke="none"/>
            <rect x="0.5" y="0.5" width="129" height="19" rx="9.5" fill="none"/>
          </g>
          <g id="Rectangle_17-2" data-name="Rectangle 17" transform="translate(1237 602)" fill="#383838" stroke="#383838" stroke-width="1">
            <rect width="107" height="20" rx="10" stroke="none"/>
            <rect x="0.5" y="0.5" width="106" height="19" rx="9.5" fill="none"/>
          </g>
          <rect id="Rectangle_19-2" data-name="Rectangle 19" width="48" height="20" rx="10" transform="translate(1154 431)" fill="#333"/>
          <rect id="Rectangle_20-2" data-name="Rectangle 20" width="48" height="20" rx="10" transform="translate(1154 455)" fill="#333"/>
          <rect id="Rectangle_21-2" data-name="Rectangle 21" width="48" height="20" rx="10" transform="translate(1154 479)" fill="#333"/>
          <g id="Mask_Group_2-2" data-name="Mask Group 2" transform="translate(-116 2)" clip-path="url(#clip-path-3)">
            <g id="_2-2" data-name="2" transform="translate(1357.684 380)">
              <path id="bar_chart_graph_analysis-2" data-name="bar_chart_graph_analysis" d="M121.273,104.773V38.636a4.409,4.409,0,0,0-4.409-4.409H99.227a4.409,4.409,0,0,0-4.409,4.409v66.136H86V21a4.409,4.409,0,0,0-4.409-4.409H63.955A4.409,4.409,0,0,0,59.545,21v83.773H50.727V60.682a4.409,4.409,0,0,0-4.409-4.409H28.682a4.409,4.409,0,0,0-4.409,4.409v44.091H15.455V16.591H6.636v92.591a4.409,4.409,0,0,0,4.409,4.409H130.091v-8.818ZM103.636,43.045h8.818v61.727h-8.818ZM68.364,25.409h8.818v79.364H68.364ZM33.091,65.091h8.818v39.682H33.091Z" transform="translate(-6.636 -16.591)" fill="#383838"/>
            </g>
          </g>
        </g>
      </g>
      <g id="Group_21" data-name="Group 21" transform="translate(-65.589 250.482) rotate(2)">
        <g id="Group_20" data-name="Group 20">
          <rect id="Rectangle_31-3" data-name="Rectangle 31" width="129" height="20" rx="10" transform="translate(1680.998 216.937) rotate(28)" fill="#383838"/>
          <rect id="Rectangle_32-3" data-name="Rectangle 32" width="150" height="20" rx="10" transform="translate(1664.567 247.84) rotate(28)" fill="#383838"/>
          <g id="Rectangle_3-9" data-name="Rectangle 3" transform="translate(1771.744 -30.413) rotate(28)" fill="#333" stroke="#383838" stroke-width="8">
            <rect width="283" height="378" rx="10" stroke="none"/>
            <rect x="4" y="4" width="275" height="370" rx="6" fill="none"/>
          </g>
          <path id="Path_8-3" data-name="Path 8" d="M8,0H255a8,8,0,0,1,8,8V25a8,8,0,0,1-8,8H8a8,8,0,0,1-8-8V8A8,8,0,0,1,8,0Z" transform="translate(1774.94 -15.123) rotate(28)" fill="#383838"/>
          <rect id="Rectangle_37-3" data-name="Rectangle 37" width="263" height="8" transform="translate(1685.271 153.52) rotate(28)" fill="#383838"/>
          <rect id="Rectangle_35-3" data-name="Rectangle 35" width="59" height="20" rx="10" transform="translate(1874.941 171.692) rotate(28)" fill="#383838"/>
          <rect id="Rectangle_36-3" data-name="Rectangle 36" width="42" height="20" rx="10" transform="translate(1860.857 198.18) rotate(28)" fill="#383838"/>
          <g id="Mask_Group_3-3" data-name="Mask Group 3" transform="translate(482.973 -1104.137) rotate(28)" clip-path="url(#clip-path)">
            <g id="iconfinder_flow_chart_172564-3" data-name="iconfinder_flow_chart_172564" transform="translate(1672.446 426)">
              <rect id="Rectangle_26-3" data-name="Rectangle 26" width="31.116" height="20.8" transform="translate(33.061 2.08)" fill="none" stroke="#404040" stroke-linecap="round" stroke-miterlimit="10" stroke-width="3.76"/>
              <rect id="Rectangle_27-3" data-name="Rectangle 27" width="23.337" height="20.8" transform="translate(36.95 74.88)" fill="none" stroke="#404040" stroke-linecap="round" stroke-miterlimit="10" stroke-width="3.76"/>
              <rect id="Rectangle_28-3" data-name="Rectangle 28" width="23.337" height="20.8" transform="translate(1.945 74.88)" fill="none" stroke="#404040" stroke-linecap="round" stroke-miterlimit="10" stroke-width="3.76"/>
              <rect id="Rectangle_29-3" data-name="Rectangle 29" width="23.337" height="20.8" transform="translate(71.956 74.88)" fill="none" stroke="#404040" stroke-linecap="round" stroke-miterlimit="10" stroke-width="3.76"/>
              <rect id="Rectangle_33-3" data-name="Rectangle 33" width="23.337" height="20.8" transform="translate(107.956 74.88)" fill="none" stroke="#404040" stroke-linecap="round" stroke-miterlimit="10" stroke-width="3.76"/>
              <rect id="Rectangle_30-3" data-name="Rectangle 30" width="97.237" height="104" fill="none"/>
              <line id="Line_1-3" data-name="Line 1" y1="52" transform="translate(48.619 22.88)" fill="none" stroke="#404040" stroke-linecap="round" stroke-miterlimit="10" stroke-width="3.76"/>
              <path id="Path_5-3" data-name="Path 5" d="M83.171,70.28V43.24H13.16V70.28" transform="translate(36.453 4.6)" fill="none" stroke="#404040" stroke-linecap="round" stroke-miterlimit="10" stroke-width="3.76"/>
              <path id="Path_6-3" data-name="Path 6" d="M83.171,70.28V43.24H13.16V70.28" transform="translate(1.453 4.6)" fill="none" stroke="#404040" stroke-linecap="round" stroke-miterlimit="10" stroke-width="3.76"/>
            </g>
          </g>
          <g id="Rectangle_3-10" data-name="Rectangle 3" transform="translate(1580.021 329.876) rotate(28)" fill="#333" stroke="#383838" stroke-width="8">
            <rect width="283" height="378" rx="10" stroke="none"/>
            <rect x="4" y="4" width="275" height="370" rx="6" fill="none"/>
          </g>
        </g>
        <g id="Path_7-3" data-name="Path 7" transform="translate(1647.521 376.526) rotate(118)" fill="#383838">
          <path d="M 357 71.5 L 3 71.5 C 1.621500015258789 71.5 0.5 70.37850189208984 0.5 69 L 0.5 3 C 0.5 1.621500015258789 1.621500015258789 0.5 3 0.5 L 357 0.5 C 358.3785095214844 0.5 359.5 1.621500015258789 359.5 3 L 359.5 69 C 359.5 70.37850189208984 358.3785095214844 71.5 357 71.5 Z" stroke="none"/>
          <path d="M 3 1 C 1.897186279296875 1 1 1.897178649902344 1 3 L 1 69 C 1 70.10282135009766 1.897186279296875 71 3 71 L 357 71 C 358.1028137207031 71 359 70.10282135009766 359 69 L 359 3 C 359 1.897178649902344 358.1028137207031 1 357 1 L 3 1 M 3 0 L 357 0 C 358.6568603515625 0 360 1.3431396484375 360 3 L 360 69 C 360 70.6568603515625 358.6568603515625 72 357 72 L 3 72 C 1.3431396484375 72 0 70.6568603515625 0 69 L 0 3 C 0 1.3431396484375 1.3431396484375 0 3 0 Z" stroke="none" fill="#383838"/>
        </g>
        <g id="Rectangle_15-3" data-name="Rectangle 15" transform="translate(1593.67 517.212) rotate(28)" fill="#383838" stroke="#383838" stroke-width="1">
          <rect width="98" height="20" rx="10" stroke="none"/>
          <rect x="0.5" y="0.5" width="97" height="19" rx="9.5" fill="none"/>
        </g>
        <g id="Rectangle_23-3" data-name="Rectangle 23" transform="translate(1610.471 685.838) rotate(28)" fill="#383838" stroke="#383838" stroke-width="1">
          <rect width="73" height="20" rx="10" stroke="none"/>
          <rect x="0.5" y="0.5" width="72" height="19" rx="9.5" fill="none"/>
        </g>
        <g id="Rectangle_38" data-name="Rectangle 38" transform="translate(1520.479 639.985) rotate(28)" fill="#383838" stroke="#383838" stroke-width="1">
          <rect width="73" height="20" rx="10" stroke="none"/>
          <rect x="0.5" y="0.5" width="72" height="19" rx="9.5" fill="none"/>
        </g>
        <g id="Rectangle_16-3" data-name="Rectangle 16" transform="translate(1571.604 558.71) rotate(28)" fill="#383838" stroke="#383838" stroke-width="1">
          <rect width="130" height="20" rx="10" stroke="none"/>
          <rect x="0.5" y="0.5" width="129" height="19" rx="9.5" fill="none"/>
        </g>
        <g id="Rectangle_17-3" data-name="Rectangle 17" transform="translate(1549.539 600.209) rotate(28)" fill="#383838" stroke="#383838" stroke-width="1">
          <rect width="107" height="20" rx="10" stroke="none"/>
          <rect x="0.5" y="0.5" width="106" height="19" rx="9.5" fill="none"/>
        </g>
        <rect id="Rectangle_19-3" data-name="Rectangle 19" width="48" height="20" rx="10" transform="translate(1556.534 410.259) rotate(28)" fill="#333"/>
        <rect id="Rectangle_20-3" data-name="Rectangle 20" width="48" height="20" rx="10" transform="translate(1545.267 431.449) rotate(28)" fill="#333"/>
        <rect id="Rectangle_21-3" data-name="Rectangle 21" width="48" height="20" rx="10" transform="translate(1534 452.64) rotate(28)" fill="#333"/>
        <g id="Mask_Group_2-3" data-name="Mask Group 2" transform="translate(636.594 -564.755) rotate(28)" clip-path="url(#clip-path-3)">
          <g id="_2-3" data-name="2" transform="translate(1357.684 380)">
            <path id="bar_chart_graph_analysis-3" data-name="bar_chart_graph_analysis" d="M121.273,104.773V38.636a4.409,4.409,0,0,0-4.409-4.409H99.227a4.409,4.409,0,0,0-4.409,4.409v66.136H86V21a4.409,4.409,0,0,0-4.409-4.409H63.955A4.409,4.409,0,0,0,59.545,21v83.773H50.727V60.682a4.409,4.409,0,0,0-4.409-4.409H28.682a4.409,4.409,0,0,0-4.409,4.409v44.091H15.455V16.591H6.636v92.591a4.409,4.409,0,0,0,4.409,4.409H130.091v-8.818ZM103.636,43.045h8.818v61.727h-8.818ZM68.364,25.409h8.818v79.364H68.364ZM33.091,65.091h8.818v39.682H33.091Z" transform="translate(-6.636 -16.591)" fill="#383838"/>
          </g>
        </g>
      </g>
    </g>
  </g>
</svg>
